inDegrees=yes
name=ik_rai_2
DataType=double
version=3
OpenSimVersion=4.5
endheader
time	gndpitch	gndroll	gndyaw	spine_tx	spine_ty	spine_tz	pitch2	roll2	yaw2	aux7jnt_r3	aux7jnt_r1	aux7jnt_r2	aux6jnt_r3	aux6jnt_r1	aux6jnt_r2	aux5jnt_r3	aux5jnt_r1	aux5jnt_r2	aux4jnt_r3	aux4jnt_r1	aux4jnt_r2	aux3jnt_r3	aux3jnt_r1	aux3jnt_r2	pitch1	roll1	yaw1	aux1jnt_r3	aux1jnt_r1	aux1jnt_r2
70.44999999999889	4.21296440140691e-09	8.002416233845703e-10	4.440363815649541e-10	-3.97872216927308e-17	8.44526185968539e-17	-7.30666612219483e-19	-0.01691056378448856	0.162449114121545	0.2444788525922743	-0.1811851966559403	1.275146741691707	2.633429688512245	-0.2131585324038575	1.461301847342795	3.067663642032444	-0.2131585324038575	2.010450609749061	3.067663642032444	-0.1598688993028947	2.010450609749061	3.067663642032444	-0.1065792662019287	1.824300836985518	1.316714844256122	-0.2720042675582635	-0.09783298622935173	-0.06686927959727944	-8.665086990496077	-2.802708604051678	-0.4252781647200509
70.4749999999989	4.21296440140691e-09	8.002416233845703e-10	4.440363815649541e-10	-3.97872216927308e-17	8.44526185968539e-17	-7.30666612219483e-19	-0.02647483133753747	0.1644696478812044	0.2567515594692434	-0.2836598225497688	1.291006951542896	2.765626442159971	-0.3337166203013063	1.479477444861905	3.22165870654049	-0.3337166203013063	2.035456491443722	3.22165870654049	-0.2502874652259805	2.035456491443722	3.22165870654049	-0.1668583101506531	1.846991397342444	1.382813221079985	-0.2724742696252756	-0.09778398875330135	-0.07468595757037895	-8.680059582040075	-2.801304929759437	-0.4749910146659148
70.49999999999891	4.21296440140691e-09	8.002416233845703e-10	4.440363815649541e-10	-3.97872216927308e-17	8.44526185968539e-17	-7.30666612219483e-19	-0.03726679965717743	0.1677751244401113	0.2732406202394123	-0.399288427676003	1.316953339041663	2.943240095477717	-0.4697499399516796	1.509211672887703	3.428559596656615	-0.4697499399516796	2.076364669978901	3.428559596656615	-0.3523124549637612	2.076364669978901	3.428559596656615	-0.2348749699758398	1.884111843862934	1.471620047738858	-0.2724116179806728	-0.09814355866301444	-0.08676164028284521	-8.678063723829997	-2.811605848892667	-0.5517904689538624
70.52499999999891	4.21296440140691e-09	8.002416233845703e-10	4.440363815649541e-10	-3.97872216927308e-17	8.44526185968539e-17	-7.30666612219483e-19	-0.04673687526474349	0.1690385708722169	0.2762135017356587	-0.5007538508972756	1.326870780635071	2.975262801366727	-0.5891207334975485	1.520576934035716	3.465862620543576	-0.5891207334975485	2.092000930376796	3.465862620543576	-0.4418405501231598	2.092000930376796	3.465862620543576	-0.2945603667487742	1.898300326182712	1.487631400683363	-0.2728999350895039	-0.09798173127364147	-0.08508580197106962	-8.69361976736179	-2.80696983568232	-0.5411323992708676
70.54999999999892	4.21296440140691e-09	8.002416233845703e-10	4.440363815649541e-10	-3.97872216927308e-17	8.44526185968539e-17	-7.30666612219483e-19	-0.05627651955359837	0.1710487306639461	0.2857882686758606	-0.6029646552519672	1.342649559870429	3.07839841106694	-0.7093684438744412	1.538659213111182	3.586004563750322	-0.7093684438744412	2.116878425097703	3.586004563750322	-0.5320263329058316	2.116878425097703	3.586004563750322	-0.3546842219372206	1.920874387053134	1.53919920553347	-0.2732880671197977	-0.09771929844911056	-0.09033843382626676	-8.705984271185516	-2.799451689056663	-0.5745383167382244
70.57499999999892	4.21296440140691e-09	8.002416233845703e-10	4.440363815649541e-10	-3.97872216927308e-17	8.44526185968539e-17	-7.30666612219483e-19	-0.06613899330907393	0.1739966074813238	0.2942371137556694	-0.708634357910785	1.365788962870037	3.169406034961164	-0.8336854363993796	1.565176672823211	3.692018701961775	-0.8336854363993796	2.153360992435855	3.692018701961775	-0.6252640772995331	2.153360992435855	3.692018701961775	-0.4168427181996898	1.953978994451908	1.584703017480582	-0.2733275831613258	-0.09816185729078941	-0.09471918558656701	-8.707243111498705	-2.812130065963859	-0.6023992131010196
